<svg id="visual" viewBox="0 0 1024 1080" width="1024" height="1080" xmlns="http://www.w3.org/2000/svg" xmlns:xlink="http://www.w3.org/1999/xlink" version="1.1"><path d="M0 527L28.5 498.5C57 470 114 413 170.8 407.5C227.7 402 284.3 448 341.2 488.5C398 529 455 564 512 561.5C569 559 626 519 682.8 479.5C739.7 440 796.3 401 853.2 405.2C910 409.3 967 456.7 995.5 480.3L1024 504L1024 0L995.5 0C967 0 910 0 853.2 0C796.3 0 739.7 0 682.8 0C626 0 569 0 512 0C455 0 398 0 341.2 0C284.3 0 227.7 0 170.8 0C114 0 57 0 28.5 0L0 0Z" fill="#164863" stroke-linecap="round" stroke-linejoin="miter"></path></svg>